<?xml version="1.0" encoding="utf-8"?>
<!-- Generator: Adobe Illustrator 24.1.2, SVG Export Plug-In . SVG Version: 6.00 Build 0)  -->
<svg version="1.1" id="Layer_1" xmlns="http://www.w3.org/2000/svg" xmlns:xlink="http://www.w3.org/1999/xlink" x="0px" y="0px"
	 viewBox="0 0 612 792" style="enable-background:new 0 0 612 792;" xml:space="preserve">
<style type="text/css">
	.st0{fill:#E47373;}
	.st1{fill:#5C6ABF;}
	.st2{fill:#EE534F;}
	.st3{fill:#B75152;}
	.st4{fill:#4B5AB4;}
	.st5{fill:#B65152;}
	.st6{fill:#D66565;}
	.st7{fill:#ED4841;}
	.st8{fill:#ED4742;}
	.st9{fill:#B0444A;}
	.st10{fill:#3C4EB2;}
	.st11{fill:#545EB8;}
	.st12{fill:#5B6AC0;}
	.st13{fill:#5E6ABE;}
	.st14{fill:#5D6ABE;}
	.st15{fill:#F27268;}
	.st16{fill:#667AC8;}
	.st17{fill:#E37273;}
	.st18{fill:#CF656A;}
	.st19{fill:#FE6364;}
	.st20{fill:#E43A35;}
	.st21{fill:#F8F7F8;}
	.st22{fill:#BF5C5C;}
	.st23{fill:#5063B4;}
	.st24{fill:#E47272;}
	.st25{fill:#E37272;}
</style>
<g id="Heart">
	<path class="st0" d="M220.3,625.2c-8.4-11.6-15.8-23.9-23-36.3c-12.4-21.4-23.4-43.5-33.1-66.2c5.5-10.7,5.7-22.5,7.2-34
		c3.5-27.3,6.7-54.5,15.7-80.7c2.7-7.8,5.7-15.4,10-22.5c0.9-1.5,1.5-4,3.6-3.5c2,0.5,1.6,3,1.8,4.7c1.8,14.4,1.3,28.6-2,42.8
		c-2.5,10.6-6,21-9.2,31.4c-5.2,17.1-5.2,34.4-1.1,51.7c5.2,22.4,14.5,43.2,25.4,63.4c4,7.4,8.7,14.2,13,21.4
		c-6.9-10.9-12.7-22.3-18-34c-8.3-18.2-14.6-37-17.3-56.9c-1.5-11.1-1.3-22.3,1-33.3c0.4-1.9,0.3-4.6,2.7-5c2.1-0.3,2.9,2.1,4.2,3.5
		c3.2,3.5,3.7,7.4,2.8,12.1c-2.4,12.8-0.9,25.6,0.8,38.3c0.2,1.8,0.3,3.6,0.8,6.2c0-0.3,0.6-0.9,0.1-0.7c-0.1,0-0.1-0.1-0.2-0.3
		c-1.8-11.9-1.2-23.8,1.3-35.6c0.1-0.6,0.2-1.3,0.4-1.9c0.4-1.2,0.3-2.8,1.8-3.1c1.5-0.3,2.1,1.2,2.8,2.3c3.4,5.3,5.7,11.2,8.1,17
		c2.9,7.1,4.8,14.5,6.6,21.9c-3.5-20.6-9.9-40.2-20.6-58.3c-1.5-2.6-3.3-4.9-5.1-7.2c-1.7-2.1-1.9-4.2-1-6.8
		c2.2-6.4,4.6-12.8,6.3-19.4c3.3-12.3,5.4-24.8,5.4-37.6c0-4.8,1-5.3,5.2-3.1c6,3.2,12,6.4,17.2,10.8c5.7,4.8,10.7,10.1,11,18.6
		c1.4-3,1.4-3.6,0-6.6c-3.6-7.9-9.8-13.8-16.1-19.4c-4.1-3.7-8.3-7.4-13.1-10.2c-6.6-3.8-6.8-9.9-6.8-16.3c0.8-1.6,2.3-2.4,3.7-3.2
		c21.4-13.1,44.8-20.7,69.6-23.8c14.4-1.8,28.8-2.1,43.3-0.7c0.8,0.1,1.5,0.2,2.2,0.5c10.1,10.6,16.7,22.9,18.4,37.6
		c0.2,1.6-0.2,3-0.8,4.5c-8.2,20.3-23.3,34-42.3,43.9c-2.6,1.4-5.1,1.7-8.1,1.4c-17.3-1.7-32.6,3.4-46.6,13.7
		c0.9,0.7,1.3,0.1,1.7-0.2c0.5-0.2,0.9-0.6,1.3-0.8c11.3-7.4,23.7-10.1,37.1-8.9c1.1,0.1,2.5,0,2.9,1.4c0.6,1.7-0.8,2.5-1.9,3.5
		c-16.6,15.4-25.2,34.6-27.2,56.9c0,0.3,0.1,0.5,0.5,0.7c1-3.9,1.3-7.8,2.3-11.7c6.4-24.1,20.9-41.7,42.6-53.4
		c5.3-2.9,10.7-5.6,15.9-8.5c8.2-4.5,14.8-10.6,19.5-18.6c0.6-0.9,1-2.5,2.3-2.2c1.5,0.3,1.4,2,1.3,3.3c-0.7,8.8-1.6,17.6-3.2,26.3
		c-3.3,18.2-9,35.5-19,51.3c-4,6.2-8.6,11.8-14,16.8c-1.8,1.7-3.6,3.3-6.1,3.9c-11.9,0.3-23,3.2-32.7,10.6c-2.5,2-4.7,4.3-6,5.4
		c6.9-6.6,16.4-10.7,27.2-12.3c1.7-0.3,3.6-0.5,5.2,0.7c0.3,2.1-1.4,2.9-2.7,3.8c-8,6.1-16,12-23.3,18.9
		c-12,11.5-19.7,25.2-21.7,41.8c-2.4,20.6,1.5,40.1,11.2,58.4c4.7,9,11.2,16.6,20.6,21.1c1.5,0.7,2.9,1.6,5,1.8
		c-0.3-1.4-1.4-1.9-2.2-2.5c-20.8-15.9-29.8-37.3-30.6-63c-0.6-18.4,5.9-33.5,17.7-47c0.8-1,1.7-1.9,2.7-2.7c1.5-1.2,3.1-1.4,4.5,0
		c2.4,2.5,4.9,5,5.3,8.6c-1.9,4.1-5.2,7.2-7.7,10.9c-4.9,7.6-8.5,15.7-10,24.7c-0.8,4.8,0.1,9.4,1.1,14c-1.8-12.2,1.9-23.1,7.7-33.5
		c2.1-3.8,4.6-7.4,7.2-10.9c0.8-1,1.4-2.1,2.8-2.4c4.5,4,5.6,9.5,6.6,15c0.3,1.6-1.3,2.6-2.4,3.7c-4.7,4.8-9,9.8-10.8,16.5
		c-1.7,6.5-1.5,12.9,1.1,19.2c-5.1-13.3,1.8-22.3,10.9-30.4c3.1-2.7,4.2-2.2,5.3,1.6c3,11.4,5.2,23,6.5,34.7
		c-0.3-8.4-1.5-16.7-2.6-24.9c-1.8-13.2-4.3-26.3-8.9-38.9c-0.4-1-0.6-2-0.4-3c3.7-6,9.3-10.1,14.6-14.5c2.2-1.9,3.7-0.2,4.8,1.8
		c4.1,8.1,4.3,16.7,3.4,24.8c1.5-5,0.4-10.7-0.4-16.4c-0.5-3.5-1.1-7.1-2.1-10.6c-0.8-2.7-0.1-4.7,2.1-6.4
		c10.3-8.1,20.3-16.5,29.4-25.9c1-1,1.9-2.1,3.6-1.9c3.9,4.9,4.3,10.8,4.7,16.7c0.6,8.7-0.6,17.4-1.8,26.1
		c-3.1,22.5,0.9,43.7,11,63.9c-4.6-13-8.4-26.1-8-40.1c0.2-7.6,1.7-15,2.8-22.5c0.4-2.7,0.8-5.3,1.1-8c0.4-3.1,2-3.7,4.4-1.7
		c3.8,3.1,6.7,7,9.8,10.8c7.6,9.2,14.2,19.1,19.7,29.7c-7.6-17.7-18.3-33.4-30.7-48c-2.1-2.5-2.4-5.4-2.5-8.3
		c-0.4-7.3-1.8-14.2-4.5-21c-0.5-1.3-0.9-2.7-0.6-4.1c0.3-1.1,0.9-2.1,1.7-3c5.8-6.4,10.6-13.5,14.8-21c0.6-1.1,1.1-3,2.9-2.5
		c1.4,0.3,1.4,2,1.7,3.2c1.5,7.7,2.2,15.5,2.8,23.2c0.7,8.2,2,16.3,4.1,24.2c-2-8.5-1.6-17.1-1.4-25.7c0-1.2-0.2-2.9,1.4-3.2
		c1.4-0.3,2.2,1,2.9,2.1c1.4,2.3,2.8,4.6,3.9,7c-1.4-3.2-3.4-6.1-5.2-9.1c-0.8-1.4-2.5-2.8-1.2-4.8c0.8-3-0.1-6,0.4-9
		c-0.4,3,0.4,6.1-0.5,9.1c-2.1-0.2-1.7-2-1.8-3.2c-0.2-2.8-0.1-5.6-0.1-8.4c0.1-4.2-0.6-8.2-2.4-11.9c-1.4-3-1.7-5.9-0.3-8.9
		c1.9-2.4,4-0.9,5.8,0c6,3,9.9,8.1,12.8,13.9c4.5,8.8,7.2,18.4,10,27.8c1.2,4,2.3,8,4.1,11.9c-2.2-13.4-4-26.8-9.5-39.4
		c-0.5-1.2-1.8-2.7-0.7-3.9c1.2-1.4,2.9-0.3,4.3,0.2c11.4,3.9,21.3,9.9,29.2,19.2c0.4,0.5,0.9,0.9,1.3,1.4c0.2,0.2,0.4,0.3,0.8,0.3
		c-2.8-5.5-7.1-9.7-11.8-13.4c-7.2-5.7-15.1-10.1-23.6-13.5c-4.1-1.6-8-3.2-11.2-6.4c-2.7-2.7-6.6-3.9-9-7
		c-0.4-4.8,0.9-9.4,1.4-14.1c0.7-7.3,0.4-14.6,1.2-21.8c0.4-3.6,0.8-4.3,4.1-3c13.8,5.5,26.2,12.9,35.1,25.2
		c0.8,1.2,1.5,2.3,2.3,3.5c0.7,1.1,1.2,2.3,1.7,2.9c-8-15.9-24.7-29.7-39.9-36.3c-2.5-1.1-4-2.7-4.3-5.3c-0.5-4.3-2.5-8.3-2.6-12.7
		c1.8-1.3,3.4-0.1,5,0.5c11.2,4.2,21.6,10,31.8,16c-12.4-7.6-24.3-16.1-37.9-21.6c-0.8-0.3-1.6-0.8-2.3-1.4
		c-2.4-3.4-5.7-6.2-6.2-10.7c1.2-1.6,2.3-0.4,3.3,0.1c23.4,11.3,45.9,24.1,66.5,40c15.1,11.6,24.7,26.8,28,45.8
		c3,17.5,0.9,34.4-3.9,51.3c-6.4,22.3-16.7,42.8-29.1,62.1c-19.3,30.2-42.1,57.6-69,81.3c-11.8,10.4-24.2,19.9-38.1,27.2
		c-13.1,7-26.6,7.1-40.2,2.6c-13.5-4.5-25.5-12-36.7-20.7c-9.6-7.5-18.9-15.3-27-24.5C221.2,625.6,220.7,625.4,220.3,625.2z"/>
	<path class="st1" d="M368,361.2c2,3.2,4,6.5,6.1,9.7c-0.6,0.7-1.4,0.6-2.1,0.3c-3.8-1.7-8.1-2-11.7-4.1c-3.9-4.5-6.9-9.5-10.7-14
		c-1.8-2.7-4.1-4.6-7.6-4.3c-4.6-1.3-9.5-0.5-13.9-2.8c-34.8-3.5-68.3,1.1-100.1,16c-6.5,3-12.9,6.3-18.6,10.7
		c-1.5,2.3-3.8,3.4-6.3,4.1c-2.8,0.9-4.2-0.6-3.3-3.5c0.3-1.1,1-2.1,1.6-3.1c6.9-11.3,15.4-21.4,23.2-32.1
		c5.2-7.2,10.3-14.4,15.1-21.8c9.8-14.6,19-29.6,24.2-46.6c2.6-8.6,4.1-17.3-0.6-25.8c-1.8-3.3-3.5-6.6-4.8-10.1
		c-4.9-13.3-5.6-26.5,1.6-39.4c1.4-2.5,3-4.8,5.3-6.5c1.7-1.3,3.5-2.6,5.9-1.9c9.3-0.8,17.7,2.5,26,6c5.7,2.3,11.4,4.7,16.9,7.4
		c23.4,11.3,46.9,10.4,70.5,1c5.1-2,10-4.6,15.1-6.8c1.9-0.9,2.5-2.1,2.4-4.2c-0.5-9.4-2.8-18.2-7.1-26.5c-3.7-7.2-2.1-12.5,5-16.3
		c7.1-3.8,14.6-4.7,22.4-2.7c7.9,2,10.8,7.1,9,15c-1.1,4.9-2,9.8-3,14.7c-0.1,0.4,0,0.8,0,1.8c5-3.8,9.6-7.4,14.2-10.9
		c14-10.5,28.8-11.5,41.8-2.9c4.3,2.9,8,6.4,11.1,10.6c9.5,13.1,14.7,27.5,12.9,43.9c-1.8,15.9-10.9,25.1-26.7,27.8
		c-10.6,1.8-21.1,4.4-31.2,8.2c-0.9,1.8-2.7,1.7-4.2,2.3c-10.9,4.1-21.5,8.7-31,15.6c-3.6,2.6-6.9,5.6-9.8,9.1
		c-7.1,8.3-7.8,18.7-1.8,27.7c5.2,7.8,12.4,13.6,20,18.9c18.3,12.8,33.3,28.5,42.7,49c2.4,5.3,4,10.8,4.8,16.6c0.5,3.5,0.3,7-3,9.4
		c-2,0.7-3.5-0.3-5-1.3c-21.6-15.3-44.8-27.5-69.5-37c-9.9-3.8-20-7-30.7-9.4C365.1,355.8,367.2,358.1,368,361.2z"/>
	<path class="st2" d="M271.3,186.1c-10.1,3.7-13.1,12.4-14.8,21.7c-2.1,11.4,0.2,22.4,6,32.2c5.6,9.6,5.7,19.2,2.6,29.2
		c-5.3,17.5-14.7,32.9-24.9,47.9c-2.3,1.8-4.7,0.5-7,0.3c-24.2-2.6-44.3-12.8-59.4-32.1c-3.8-4.8-6.6-10.4-8.5-16.3
		c-4.3-10.3-3.6-21.1-2.9-31.8c0.8-12.7,3.6-25.1,7.6-37.1c3.6-9.3,6.8-18.8,11.7-27.6c1.8-3.3-0.9-4.6-2.6-6.3
		c-4.5-3.5-9.3-6.5-14.6-8.7c-2.6-1.4-5.5-2.2-8-3.8c-4.5-2.9-6.4-7.1-5.6-12.2c1.9-11.6,9-19.6,18.9-25.3c0.6-0.3,1.2-0.4,1.9-0.1
		c10.7-3.6,15.3-1.7,20.5,8.4c2.8,5.5,6.1,10.7,9,16.1c1.2,2.1,2,2,3.5,0.3c4.8-5.4,10.1-10.2,16-14.4c2.1-1.5,1.9-2.4,0.4-4.1
		c-3.8-4.4-8-8.3-12.8-11.6c-6.4-4.5-7.7-9.9-3.5-16.6c5.4-8.6,13.3-13.9,23.4-15.1c7.5-0.9,11.9,2.6,13.5,10
		c1.5,6.6,3.5,13.1,5.5,19.6c0.7,2.2,1.6,3.2,3.7,1.9c1.8-1.1,5.7,0.1,4.3-4.5c-1.5-4.7-3-9.2-5.3-13.6c-3.5-6.6-2.1-12,4.3-15.6
		c7.7-4.4,16-5.3,24.5-2.7c6.8,2.1,9.4,7.1,7.8,14c-1,4.6-1.9,9.3-3,13.9c-0.5,2.2-0.3,3.2,2.4,3.2c27.2,0.1,52.2,8.3,76.3,20.1
		c8.3,4.1,14.2,10.4,15.7,20c0.1,3.6,0,7.2,0,10.7c-1.7,15.3-16.9,30.6-31.5,31.6c-3.3-0.1-6.7,0-10-0.1c-5.7-0.4-10.4-3.2-15.3-5.6
		C303.8,173.3,287.2,175.5,271.3,186.1z"/>
	<path class="st3" d="M166.5,269.3c4.6,12.5,12.6,22.3,23.2,30.2c11.7,8.7,24.9,14,39.1,16.6c3.7,0.7,7.6,0.6,11.4,0.9
		c-10,15.7-21.7,30.3-32.6,45.4c-2.5,3.4-4.6,7-6.9,10.6c-0.5,0.8-1.1,1.9-0.3,2.8c0.9,1,1.9,0.2,2.8-0.2c2.1-1,4.1-2.1,6.1-3.1
		c0.6,3.4,1.2,6.8,1.7,10.2c0.2,1.6,1.5,2,2.5,2.7c8.7,6.3,17.3,12.8,24.6,20.8c3.5,3.8,6.4,8,8.4,12.8c1,2.4,1,4.7-0.3,7
		c-0.3,0.6-0.8,1.1-1.5,0.8c-0.4-0.2-0.8-0.8-0.8-1.2c-0.1-13-10-18.4-19-24.5c-3.7-2.5-7.7-4.4-11.8-6.7c-0.3,0.5-0.6,0.8-0.6,1
		c0.6,21.2-4.7,41.3-12,60.9c-0.7,1.8-0.5,3,0.6,4.5c10.9,14,17.2,30.2,22.1,46.9c1.8,6.2,3.4,12.6,4.4,19c0.1,0.6,0.2,1.3,0.2,1.9
		c0,0.9,0.2,2-1,2.2c-1.3,0.2-1.1-1-1.3-1.9c-1.7-7.9-3.7-15.7-6.8-23.1c-2.7-6.5-5.3-13-9.7-19.4c-2,7.1-3.1,13.9-3.5,20.8
		c-0.3,7.1-0.3,14.3,1.3,21.4c0.2,0.7,0.4,1.7-0.5,2c-1.2,0.3-1.4-0.8-1.6-1.7c-0.8-4.7-1.9-9.3-2.2-14c-0.9-11.5-1.9-23,0.7-34.4
		c1.4-6-4-8.2-6.2-13c-2.3,4.8-2.4,9.3-3,13.6c-2.1,14.8,0.3,29.3,3.9,43.6c4.5,17.7,11.3,34.5,19.7,50.7
		c3.8,7.4,7.9,14.6,12.1,21.7c0.5,0.8,1.4,1.6,0.7,3c-2.7-0.7-3.5-3.2-4.7-5.1c-13.1-20.5-23.8-42.1-31.8-65.1
		c-5.8-16.7-8.9-33.9-7.4-51.6c0.7-8,2.8-15.8,5.4-23.5c4.8-14.5,9-29,10.5-44.3c0.8-8.1-0.4-16.1-1-24.1c-0.1-1.4-0.4-2.8-0.7-4.7
		c-3.6,4.8-6,9.8-8.1,14.9c-8,18.4-12.2,37.9-15.4,57.6c-2.2,13.9-3.8,27.8-5.5,41.7c-1,7.9-1.7,16-4.8,23.5
		c-0.6,1.4-1.2,2.5-2.6,3.1c-2.5-1.1-4-3.2-5.6-5.1c-15.5-18.2-26.4-39-35-61.1c-11.1-28.5-18.4-57.8-19-88.5
		c-0.3-12.8,1.3-25.3,5-37.5c1.5-7.7,5.7-14.2,10.1-20.5c10.5-15.2,24.4-26.8,40-36.4C161.9,272.1,164.1,270.6,166.5,269.3z"/>
	<path class="st4" d="M166.5,269.3c-0.4,2-2.2,2.4-3.6,3.2c-16.6,10-31.4,22-42.7,38c-4.4,6.2-7.5,13.1-10.7,19.9
		c-3.9-12.7-6.5-25.7-8.9-38.8c-2.6-13.7-4.9-27.4-5.9-41.3c-5.6-23.1-4.3-46.6-3.5-70.1c0.2-6,0.5-12,1.3-18
		c1.6-0.8,1.3-2.3,1.5-3.7c2.2-19.5,6.2-38.6,12.5-57.2c4-11.6,14.2-19.4,26.1-19.9c3.1,0.4,6.1,0.4,9.2,0
		c18.8,0.6,30.9,14.6,30,34.5c-9.3,5.3-16.6,12.4-19.3,23.1c-2,7.6,0.7,12.5,8,15.5c1.5,0.6,3,1.4,4.5,2.1c1.3,2,1,4.3,1,6.5
		c0.8,10.6,2,21,4.4,31.4c0.4,1.6,0.6,3.3,0.8,4.9c-2.6,9.9-5.5,19.7-6.7,29.9C162.9,242.7,161.5,256.2,166.5,269.3z"/>
	<path class="st5" d="M468.2,400.1c2.7-2.6,2.7-6,2.1-9.3c-2.3-13.5-8.6-25-16.7-35.8c-10.1-13.5-23.3-23.6-36.8-33.3
		c-7.2-5.2-13.6-11.4-16.7-20.1c-3-8.6-1.2-16.3,4.8-23.1c4.4-1.8,9-0.5,13.2,0.2c27.1,4.7,52.4,14.2,74.3,31.3
		c7.6,5.9,14.2,13,19.4,21.1c0.8,1.3,1.7,2.6,1.4,4.3c5.3,9.9,8.5,20.5,8.8,31.8c-0.6,4.1-0.6,8.2,0,12.3
		c-0.5,13.9-4.9,26.8-11,39.1c-3.5,7.1-7.8,13.8-12.6,20.1c-1.1,1.4-2.1,2.9-4.1,3.3c-2.4,1.5-4.1,0.2-5.7-1.4
		c-2.4-2.4-4.1-5.2-5.7-8.1c-5.4-9.3-9.6-19.2-14.4-28.7C468,402.6,467.3,401.4,468.2,400.1z"/>
	<path class="st6" d="M468.2,400.1c6,12.9,11.5,26.2,19.7,38c1.6,2.3,3.4,4.2,6.5,3.8c-4.1,10.9-7.9,21.9-12.3,32.7
		c-25.4,61.7-56.8,120.1-98.3,172.6c-12.2,15.4-25.5,29.8-41.6,41.4c-4.3,3.1-8.8,5.7-13.5,8.1c-12.6,6.3-25,6.5-37.6-0.1
		c-10.5-5.4-19.8-12.4-28.3-20.4c-16.2-15.3-30.1-32.5-42.5-51c1.3-0.8,2,0.5,2.5,1.1c10.6,11.3,22.4,21.4,35.2,30
		c12.3,8.3,25.3,15.2,40.6,16.9c12.7,1.4,23.5-3,33.8-9.5c19.8-12.3,36.9-27.8,52.9-44.7c12.2-12.8,23.5-26.3,33.8-40.6
		c11.4-15.9,21.8-32.4,30.2-50.1c5.9-12.6,10.8-25.6,13.9-39.2c3.6-16.3,4.6-32.7,0.3-48.9c-4.4-16.5-14.2-29.6-27.9-39.8
		c-20.8-15.4-43.4-28.1-66.5-39.6c-0.2-0.1-0.6,0.2-0.9,0.4c-2.2-3-4.4-5.9-6.5-8.9c0.1-0.3,0.3-0.5,0.4-0.8
		c5.2,1.4,10.5,2.7,15.7,4.3c31.1,9.7,59.8,24.1,86.4,42.8C465.2,399.5,466.5,400.4,468.2,400.1z"/>
	<path class="st2" d="M513.4,335.4c-8.4-14.7-20.7-25.5-35-34c-18.6-11.1-38.9-18.1-60.2-21.8c-4.3-0.8-8.8-0.7-13.2-1.1
		c4.4-5.7,10.1-9.8,16.2-13.4c9.3-5.5,19.1-9.9,29.4-13c6.6,3.3,12.4,7.7,17,13.5c1.1,1.4,1.8,1.3,3,0.1c3.1-3.1,5.8-6.5,8.2-10.1
		c3.8-5.7,8.3-6.9,14.1-3.5c7.5,4.3,12.1,11,13.6,19.5c1,5.6-1.9,9.8-7.8,11.5c-5.8,1.6-11.4,3.8-17.1,5.6c-3.4,1.1-1.9,3.1-1.8,5.1
		c0.1,2.4,1.4,2.6,3.3,2.5c9.2-0.5,18-2.2,26.5-6c8.1-3.5,14-1.7,17.9,6.2c4.8,9.5,5,19.5,1.3,29.4C526,333,520.7,335.9,513.4,335.4
		z"/>
	<path class="st1" d="M92.4,162.3c1.6,1.1,0.9,2.8,0.7,4.2c-2,17.3-1.7,34.7-1.4,52.1c0.1,8.5,1.3,17,1.8,25.5
		c0.1,2.2,1.9,4,1.1,6.3c-0.7-0.6,0-2.8-2.3-1.8c-5.6,2.4-11.1,0.9-16.3-1.4c-5.5-2.4-10.3-5.8-13.8-10.7c-4.8-6.7-3.9-13,2.5-18.2
		c1.7-1.4,3.4-2.8,5.1-4.1c2.6-2.1,2.4-4-0.5-5.6c-3-0.9-6.1-0.6-9.1-0.2c-11.6-1.1-17.8-11.3-14.3-23.8c2.2-8,7-13.8,15-16.6
		C71.1,164.4,81.6,162.5,92.4,162.3z"/>
	<path class="st7" d="M378.1,156.1c-1.2-3.6-1.1-7.2,0-10.7C379.1,148.9,379.1,152.5,378.1,156.1z"/>
	<path class="st8" d="M336.6,187.6c3.3-1.1,6.7-1.3,10,0.1C343.2,188.6,339.9,188.6,336.6,187.6z"/>
	<path class="st9" d="M522.1,379.5c-1.2-4.1-1.2-8.2,0-12.3C522.7,371.3,522.6,375.4,522.1,379.5z"/>
	<path class="st10" d="M141.7,81.5c-3.1,1.1-6.1,1.1-9.2,0C135.6,80.9,138.6,80.9,141.7,81.5z"/>
	<path class="st11" d="M60.1,208.4c3-1.4,6.1-0.6,9.2-0.5c0,0,0.1,0.2,0.1,0.3c0,0.1-0.1,0.2-0.2,0.3
		C66.1,208.8,63.1,209,60.1,208.4z"/>
	<path class="st5" d="M328.1,345.9c4.9,0.3,9.8,0.8,14.6,2c1.5,0.8,2.2,2.4,3.2,3.7c1.9,2.7,3.6,5.7,4.8,8.8
		c1.1,2.9,2.7,4.5,5.8,4.6c1.4,0.1,2.8,0.5,3.9,1.4c4.5,1.5,9.1,3,13.6,4.5c15.2,6.3,28.9,15.4,42.3,25c-12.9-6-25.1-13.6-38.8-17.9
		c-2.7,0.9-4.9-0.7-7.4-1.2c-1.5-0.3-3-0.8-4.5-1c-2.5-0.6-5-1.2-7.5-1.7c-1.9-0.4-3-0.1-2.6,2.2c2.4,13.7,1.5,27.4-0.2,41
		c-0.5,3.8,1,6.4,3.6,8.8c3.5,3.1,7.3,5.7,11.4,7.9c2.7,2,6.1,3,8.5,5.6c7.8,4.9,14.7,11.1,23.7,14.4c10.2,3.8,19.4,9.8,26.9,18
		c2.1,2.3,3.8,4.9,5.4,7.4c0.5,0.8,1.5,1.9,0.5,2.7c-1.1,0.9-1.8-0.5-2.4-1.1c-4-4.1-7.8-8.4-12.5-11.8c-6.6-4.7-13.9-7.8-22.3-10.6
		c3.1,6.5,5.2,12.6,6.8,18.9c2,8.1,3.4,16.2,4.7,24.4c0.1,0.9,1.2,2.6-0.7,2.8c-1.5,0.2-1.4-1.5-1.7-2.5c-4-11.5-6.7-23.4-11.5-34.6
		c-3.5-8.2-7.8-15.6-16.7-19.1c-0.7-0.3-1.5-0.3-2.2-0.5c-3.3,0.3-5.9-1.8-8.9-2.4c-5.3-2.5-10.1-6-15.3-9.9
		c-0.8,6.1-2.1,11.7-3.5,17.2c-1.3,5.2-2.8,10.4-4.9,15.3c-1.3,3.1-1.1,5.6,1,8.2c1.3,1.7,2.5,3.6,3.5,5.5c1.4,2.8,3.6,5.2,3.8,8.6
		c1.5,6.1,4.2,11.8,5,18c0.5,3.5,0.1,7.1,1,10.7c0.4,1.5,0.8,2.8,1.8,4c12.8,15,23.6,31.2,31.4,49.3c0.3,0.7,1.3,1.7,0,2.3
		c-1.3,0.5-1.6-0.9-2.1-1.8c-4.6-9.2-10.3-17.7-16.5-25.9c-4.1-5.4-8.5-10.6-13.4-15.3c-0.5-0.5-1-1.4-1.9-0.9
		c-0.4,0.3-0.7,1.1-0.7,1.6c-1.1,8.1-1.9,16.2-3.2,24.2c-1.8,10.9,0,21.4,2.8,31.8c1.4,5.4,3.4,10.7,5.2,16c0.2,0.7,0.6,1.4,0,2.6
		c-3.9-4.4-6-9.6-7.8-14.8c-4.8-13.2-7.4-26.9-6.9-40.9c0.3-7.7,1.6-15.5,2.4-23.2c1.2-10.7,1.1-21.2-3.4-31.2
		c-2.6-1.7-3-4.8-4.6-7.2c-3.8-7.1-3.9-7.1-8-0.5c-4.4,6.9-9.4,13.3-15.5,18.8c-2,1.4-3.7,3.3-5.5,4.9c-8.3,6.6-16.9,12.8-25.4,19.3
		c-1.5,1.2-2,2.1-0.6,3.7c1.5,1.9,2.6,4.1,3.9,6.2c0.5,1.1,1.1,2.2,1,3.5c2.7,8.6,5.5,17.2,7.1,26.2c2,10.8,3.6,21.6,4.5,32.5
		c0.2,3,1,6.1,0.7,9.1c-0.1,0.9,0.5,2.4-1,2.4c-1.2,0-1.2-1.4-1.3-2.4c-0.7-10.9-3-21.4-5.5-32c-0.5-2.1-1.1-4.1-1.8-6.5
		c-11.8,9.1-19.2,19.3-12.7,35.1c-3.6-3.2-4.3-7.1-4.7-11.1c-1.3-12.3,4.1-21.8,13.1-29.6c1.4-1.2,1.8-2.3,1.2-4
		c-1.6-4.5-3-9-5.5-13c-1.7-0.4-1.3-2.1-1.8-3.2c0-0.3,0-0.5-0.1-0.8c-5.4-9.9-6.1-10-13.3-1.5c-10,11.7-15.2,25.1-15.1,40.8
		c0.1,17.9,4.2,34.4,14.7,49.1c4.7,6.6,10.6,12.1,17.1,16.9c1,0.7,3.1,1.3,1.8,3.1c-0.9,1.3-2.4,0.2-3.5-0.2
		c-10.9-4-18.4-11.9-24-21.6c-7.4-12.7-10.7-26.6-12.3-41.2c-1.5-14.3,0.3-27.7,6.4-40.7c3.8-8.1,9.4-14.8,15.6-21.1
		c8.1-8.2,18-14.3,26.6-21.9c1.5-2.4,4.1-3.5,6.1-5.4c6.6-3.2,10.9-8.9,15.1-14.4c13.2-17.3,19.9-37.3,23.5-58.5
		c1.5-9.1,2.5-18.2,3.2-28.5c-3.1,4.7-5.4,8.6-8.5,12c-6.2,6.8-14.2,11-22.2,15c-11,5.5-21.3,11.8-29.7,20.8
		c-12.2,13-19.4,28.4-21.5,46.1c-0.2,1.4,0.2,3.3-1.8,3.2c-2.2-0.1-1.3-2.2-1.2-3.4c2.1-18.9,8.2-36.1,21.1-50.4
		c2.4-2.7,4.5-5.5,7.6-7.6c0.5-0.3,0.9-1.1,0.9-1.6c-0.1-0.8-0.9-0.7-1.5-0.7c-14.3-1.2-27.5,1.6-39.3,10.1c-1,0.7-2,2.3-3.1,0.7
		c-1-1.4,0.5-2.2,1.5-3c9.4-7,19.8-11.7,31.5-13.3c5.9-0.8,11.7-1.2,17.5,0c1.3,0.2,2.4-0.1,3.7-0.7c8.8-4.8,17.3-10,24.8-16.7
		c5.4-4.9,10-10.6,13.3-17.2c1.8-3.7,3.8-7.3,5.8-10.9c1.2-2.2,0.4-4.3,0-6.3c-1.9-12.4-7.9-22.8-15.8-32.3
		C328.6,347.1,328.4,346.5,328.1,345.9z"/>
	<path class="st1" d="M378.9,439.5c-3.1-1-5.8-2.8-8.4-4.6c-1.3-5.4,0.4-10.6,0.8-15.9c1-13.3-0.1-26.3-4.4-39
		c-0.6-1.6-1.7-3.2-0.9-5.1c4,0.3,7.8,1.8,11.6,3c1.3,4.2,2.6,8.3,3.1,12.7c0.3,2.5,1.6,3.5,3.8,4.5c16.4,7.5,29.6,18.8,38.9,34.3
		c1.1,1.9,2.5,3.8,2.6,6.2c-1.4,0.5-1.5-0.5-1.8-1.1c-8.1-15.8-21.5-25.4-37.4-32c-4.9-2-4.8-2-5,3.3
		C381.3,417.1,381,428.4,378.9,439.5z"/>
	<path class="st1" d="M368.2,444.9c3.1,0.4,6,1.7,8.8,3.1c-1.5,3.5-0.9,6.7,0.7,10.2c2.4,4.9,2.1,10.5,2.2,15.8
		c0,2.4-0.8,4.8,0.6,7.1l0,0c2.6,5.8,6.7,10.8,8.2,17.2c-2.8-4-4.8-8.6-8.9-12.8c-0.3,9.6-0.8,18.4,1.1,27.2
		c0.2,0.9,0.4,1.7,0.6,2.6c0.2,0.9,1.2,2.2-0.3,2.5c-1.3,0.3-1.5-1.2-1.7-2.1c-0.8-2.7-1.5-5.4-2-8.2c-2.5-12.2-2.7-24.6-4.6-36.9
		c-0.3-2-0.7-4-1.2-7.2c-5.6,10.2-11.6,19-18.9,27c-1.5-2.6-3-5.1-4.4-7.7c0.2-1.4,0.8-2.7,1.7-3.8c7.7-9.2,13.2-19.7,16.5-31.2
		C366.9,446.8,367.2,445.6,368.2,444.9z"/>
	<path class="st12" d="M342.7,489.6c1.3,2.6,2.5,5.1,3.8,7.7c-10.2,10.3-21.1,19.9-32.6,28.7c-1.7,1.3-1.9,2.5-1.5,4.6
		c2,9.3,4.2,18.5,2.6,28.1c-0.3,1.8-0.3,1.8-2,4.1c-0.8-1.6-0.2-3-0.1-4.5c1.1-8.7,0.6-17.1-3.6-25.1c-1-1.9-1.8-2.1-3.4-0.7
		c-5,4.3-9.7,8.7-14.2,13.5c-0.6-1.1-1.2-2.2-1.8-3.3c1.6-4,4.9-6.7,7.8-9.7c4.7-5,9.5-9.9,14.6-14.6c2.3-2.1,3-3.7,0.1-5.6
		c1.6-1.9,3.2-3.8,5.5-4.9c4.2,0.8,6.7-1.7,9.5-4.3c4.1-3.9,7.9-7.9,11.7-12.1C340.2,490.5,341,489.2,342.7,489.6z"/>
	<path class="st13" d="M284.2,549.6c1,0.8,1.4,2,1.8,3.2c-7.9,10.4-14.8,21.3-16.8,34.5c-0.5,3.6-0.6,7.1,0,10.7
		c0.2,1.5,0.9,2.9,0,4.5c-1.8-0.4-1.7-2-2.1-3.3c-3.5-14.2,1.2-26.5,8.7-38.2C278.3,557.1,281.4,553.4,284.2,549.6z"/>
	<path class="st14" d="M304.1,505.2c-0.9,3-3.7,4-6.1,5.4c-14-0.3-25.3,5.7-35.8,15.9C266.6,515.9,285.7,504.3,304.1,505.2z"/>
	<path class="st15" d="M380.5,481.2c0-3.3,0-6.5,0-9.8C380.8,474.6,382.1,477.9,380.5,481.2C380.5,481.2,380.5,481.2,380.5,481.2z"
		/>
	<path class="st16" d="M338.3,327.1c-3.8,0.2-7.3-1.2-10.8-2.2c-14.9-4.1-29.8-2.7-44.8,0.2c-7.9,1.5-15.4,4.6-23.3,6
		c-1.2,0.2-2.6,1.3-3.4-0.3c-0.8-1.6,0.5-2.6,1.5-3.6c5.9-6,11.9-11.9,16.7-18.9c5-7.4,8.7-15.2,11.1-23.8
		c2.3-7.8,3.5-15.8,3.4-23.7c-0.1-11.5-2.2-22.8-6.6-33.6c-2-5.1-4.1-10.1-4.3-15.8c-0.1-3.3,1.3-3.8,3.7-3.7
		c2.5,0.1,4.7,1.3,6.8,2.4c7.2,3.9,14.3,7.9,21.5,11.9c12.7,7.2,26.1,11.9,41,10.2c12.4-1.4,24.1-5.5,35.6-10.2
		c5.2-2.1,10.3-4.5,15.9-5.6c3-0.6,6-1.1,7.9,2.1c1.8,3.2,1.4,6.5-0.9,9.2c-4.7,5.7-11.5,8.3-18,11.3c-13.5,6.4-27.6,12.1-39,22.1
		c-8.8,7.7-13.1,17.4-11.4,29.7c1.2,8.9,4.4,17.2,5.9,26C348,324.6,346.1,327.1,338.3,327.1z"/>
	<path class="st4" d="M445.1,189.1c0-7.8,1.3-14.2,6-19.5c4.6-5.1,10.2-7.6,17.1-6.2c14.9,3.1,23.3,13.6,29.1,26.5
		c3.7,8.3,5.2,17,3.3,26.2c-1.7,8.4-7.9,15.3-15.9,16.7c-6.8,1.2-12.8-1.5-18.4-5.1c-10.7-6.9-16.3-17.4-20.1-29
		C445.2,195.4,444.6,191.8,445.1,189.1z"/>
	<path class="st17" d="M360.4,366.4c-2.4-0.3-4.8-0.6-7.2-0.8c-1.8-0.2-2.2-1.6-2.6-2.9c-1.4-3.9-3.6-7.3-5.6-10.9
		c-0.6-1.1-0.3-1.7,1-1.6c1.8,0.1,3,1.3,4.2,2.4C354,356.9,357.5,361.4,360.4,366.4z"/>
	<path class="st18" d="M350.2,352.5c-1.8,0-3.1-2.9-5.2-0.8c-0.8-1.3-1.5-2.6-2.3-3.9C346.5,347.3,348.5,349.7,350.2,352.5z"/>
	<path class="st19" d="M180.1,239c0.4-26.9,8.6-51.3,25.6-72.3c12.7-15.7,29.3-25.8,49.5-28.9c7.4-1.1,14.9-2.3,22.5-1.7
		c1.5,0.1,3.3,0,3.9,1.7c0.6,1.8-0.5,3.2-1.8,4.3c-7.5,6.6-15.5,12.5-23.4,18.6c-11.7,9-22.7,18.7-31.2,30.9c-5,7.2-7.3,15.3-9,23.8
		c-3,15-4.9,30.1-5.5,45.5c-0.3,8.1,0,16.4-2.2,24.3c-1.9,6.8-3.9,6.5-8,3.1c-11.1-9.1-17.9-20.7-19.7-35.2
		C180.3,248.5,180.3,243.8,180.1,239z"/>
	<path class="st20" d="M186.7,125.5c-0.5,9-4.9,14-10.4,18.3c-3.9,3-8.2,5.1-13.3,3.8c-3.4-0.9-4.8-3.1-5.1-6.7
		c-0.9-11,11.5-21.2,19.1-22.5C181.6,117.6,187.5,120.5,186.7,125.5z"/>
	<path class="st20" d="M217.5,106.8c-7.9,0.1-11.5-4.5-9.4-10.9c2.7-8,15.6-15.2,23.7-13.1c5.6,1.4,8,6.4,5,11.4
		C232.3,101.8,225.5,106.1,217.5,106.8z"/>
	<path class="st1" d="M171.2,199.4c-2.4-3.1-2.6-6.9-3.2-10.4c-1.4-8.4-2.6-16.8-3.1-25.3c4.9-0.9,9.6-0.2,14.2,1.6
		c1.3,1,2.6,2,3.9,3c0.9,0.7,1.2,1.5,0.5,2.7C178.4,180,175,189.7,171.2,199.4z"/>
	<path class="st21" d="M179.1,165.3c-4.7-0.4-9.5-0.6-14.2-1.6c0-2.3,0-4.7,0-7C170.2,158.7,174.9,161.5,179.1,165.3z"/>
	<path class="st22" d="M179.5,337.2c0.3,5.4-1.9,10-4.2,14.6c-4.3,8.5-10.6,15.6-14.9,24c-4.6,8.9-8.2,18-11.1,27.6
		c-2.8,9.4-2.9,19.1-5.2,28.5c-0.3,1.2-0.6,2.5-1.2,3.6c-3.3,6-7.8,4.9-10.8,0.6c-7.2-10.4-11.6-22-14.3-34.4
		c-2-9.2-2.7-18.5-2.8-27.7c-0.1-9.8,1.6-19.5,3.9-29.1c3.1-12.4,8.4-23.7,16.6-33.6c6.9-8.2,17.4-9.7,26.4-3.8
		C172.7,314.5,179,324.2,179.5,337.2z"/>
	<path class="st23" d="M106.3,192.5c-0.5-14.7,1-29.8,2.4-44.9c1-10.9,2.7-21.7,5.7-32.3c0.5-1.6,0.9-3.5,2.9-3.6
		c2.1-0.2,2.5,1.7,3.2,3.3c2.7,5.9,3.8,12.2,5,18.4c1.4,7.5,2.9,15,3.6,22.6c0.6,7.9,1.8,15.7,2.7,23.5c0.8,6.7,1.8,13.4,2.5,20.1
		c0.7,7,0.7,14,2.2,20.9c1.2,5.7,1.1,11.5,1.1,17.1c0,11.9,0,24.1-7.8,34.4c-4.4,5.9-9.8,5.6-13.5-0.8c-3.8-6.7-5-14.3-6-21.6
		c-1.8-13.1-2.9-26.3-3.9-39.5C105.9,204.3,106.3,198.6,106.3,192.5z"/>
	<path class="st0" d="M366,374.9c6.3,14.1,7.4,28.9,6.4,44c-0.4,5.4-0.8,10.7-1.9,16c-4.6-1.8-8.4-4.9-12.1-7.9
		c-3.5-2.9-4.7-6.5-4-11.1c1.9-13.3,2.6-26.7,0-40c-0.6-3,0.2-4,3.2-3.2C360.3,373.5,363.2,374.2,366,374.9z"/>
	<path class="st0" d="M368.2,444.9c-3.3,14.4-10.4,26.8-19.9,37.9c-0.2-0.3-0.3-0.7-0.6-1c-5.9-6-5.5-12.2-2.3-19.7
		c3.3-7.4,4.8-15.6,5.9-23.7c0.6-4.6,0.7-4.5,4.5-1.8C359.9,439.5,364.1,442.2,368.2,444.9z"/>
	<path class="st24" d="M312.5,512.7c4.9,1.8,5,1.8,1.2,5.5c-8.1,7.9-16.1,16-23.7,24.4c-0.4-0.5-0.7-1.1-1.1-1.6
		c-1.5-2.3-4.2-4.6-4.2-6.9c0-2.3,3.8-3.3,5.8-5C297.8,523.5,305.2,518.2,312.5,512.7z"/>
	<path class="st25" d="M342.7,489.6c-5.6,5.6-11.2,11.1-16.7,16.9c-2.4,2.6-4.8,3.5-7.9,1.4c7.1-7.3,13.3-15.2,18.3-24.1
		c1.4-2.5,2.2-1.2,3.1,0.2C340.6,485.8,341.6,487.7,342.7,489.6z"/>
</g>
</svg>
